<svg id="svg" version="1.1" xmlns="http://www.w3.org/2000/svg" xmlns:xlink="http://www.w3.org/1999/xlink" width="400" height="333.14339981006646" viewBox="0, 0, 400,333.14339981006646"><g id="svgg"><path id="path0" d="M194.000 10.563 C 162.951 12.902,132.381 24.583,108.333 43.295 C 96.480 52.518,83.831 65.272,77.938 73.942 C 65.625 92.054,59.147 104.030,60.297 106.553 C 60.899 107.875,61.445 107.144,64.318 101.176 C 71.896 85.432,83.512 69.296,95.856 57.364 C 143.259 11.543,212.676 -0.360,271.723 27.206 C 276.433 29.405,277.862 29.748,278.238 28.769 C 279.174 26.328,254.417 16.923,238.167 13.545 C 225.292 10.870,206.642 9.610,194.000 10.563 M314.556 55.222 C 314.052 55.725,314.433 56.415,316.334 58.448 C 319.117 61.423,321.550 62.258,320.831 59.992 C 320.159 57.874,315.468 54.309,314.556 55.222 M329.686 71.810 C 329.162 72.441,329.491 73.103,332.185 76.833 C 339.994 87.649,346.689 99.719,351.314 111.320 C 353.537 116.896,353.781 117.333,354.672 117.333 C 355.528 117.333,355.700 116.546,355.199 114.925 C 350.653 100.216,332.113 68.885,329.686 71.810 M85.667 97.374 C 80.798 99.309,79.369 108.994,79.331 140.333 C 79.312 156.134,79.641 155.402,72.126 156.375 C 69.398 156.728,64.992 157.404,62.333 157.876 C 51.368 159.827,52.206 160.996,51.672 143.000 C 51.077 122.904,50.146 108.808,49.165 105.014 C 47.854 99.948,43.173 98.289,41.061 102.142 C 40.336 103.466,40.365 116.917,41.138 137.730 C 41.429 145.556,41.667 153.933,41.667 156.346 L 41.667 160.733 40.583 161.812 C 39.714 162.678,38.477 163.222,34.333 164.563 C 24.840 167.634,21.128 170.441,19.152 176.043 C 17.908 179.569,19.691 179.746,25.852 176.708 C 38.512 170.466,40.711 169.938,41.690 172.905 C 42.536 175.466,41.709 198.835,40.467 207.500 C 39.484 214.350,39.485 214.182,40.445 215.142 C 42.751 217.448,49.460 215.341,51.318 211.726 C 51.997 210.405,52.315 201.830,52.324 184.573 C 52.336 163.355,51.318 165.711,62.002 162.179 C 77.185 157.158,78.640 157.305,79.048 163.899 C 79.334 168.512,79.773 169.093,82.168 168.034 C 83.039 167.648,84.084 167.333,84.491 167.333 C 85.341 167.333,86.143 166.537,86.505 165.333 C 86.643 164.875,87.209 163.866,87.763 163.091 C 89.094 161.226,89.205 160.324,88.952 153.388 C 88.072 129.274,88.292 109.425,89.510 103.060 C 90.549 97.629,89.379 95.898,85.667 97.374 M167.008 100.183 C 164.518 100.877,162.774 101.960,160.872 103.993 C 155.103 110.161,149.178 133.295,148.467 152.423 C 148.177 160.256,147.733 161.262,143.500 163.701 C 140.004 165.714,138.882 164.786,138.551 159.604 C 137.755 147.123,131.263 140.906,120.451 142.271 C 113.874 143.102,109.756 146.046,107.687 151.397 C 106.585 154.249,105.941 155.108,104.021 156.289 C 98.399 159.748,96.034 176.463,99.975 184.884 C 102.964 191.273,110.828 194.465,119.935 192.987 C 128.682 191.568,134.148 185.932,137.185 175.205 C 137.880 172.751,138.953 171.605,142.815 169.194 C 147.618 166.197,148.300 166.550,149.515 172.667 C 153.495 192.707,160.870 201.524,170.833 198.154 C 174.740 196.832,177.019 194.754,180.138 189.667 C 184.024 183.327,185.172 183.290,186.801 189.452 C 191.417 206.911,203.682 205.954,212.968 187.409 C 215.389 182.572,216.234 182.295,219.445 185.282 C 227.380 192.664,237.136 191.686,242.912 182.928 C 245.590 178.868,246.817 179.259,248.799 184.806 C 252.684 195.680,259.793 196.168,267.423 186.083 C 269.438 183.420,270.503 183.278,273.149 185.320 C 279.356 190.109,287.593 189.911,292.988 184.845 C 296.522 181.525,297.530 181.777,299.032 186.352 C 303.330 199.443,312.346 199.009,320.184 185.333 C 322.491 181.308,322.929 181.120,327.056 182.373 C 333.738 184.403,339.528 180.136,346.827 167.804 C 351.391 160.092,351.653 159.760,352.806 160.202 C 354.167 160.724,354.166 163.582,352.805 178.000 C 352.147 184.959,351.998 185.287,347.095 190.573 C 331.720 207.152,328.519 211.860,328.547 217.855 C 328.576 224.154,333.893 227.269,340.868 225.074 C 349.599 222.327,354.905 212.889,360.362 190.402 C 362.473 181.703,362.187 182.274,367.168 176.832 C 384.163 158.267,394.006 143.673,391.333 141.000 C 389.598 139.264,387.401 140.438,385.333 144.207 C 381.146 151.835,369.698 166.528,367.452 167.156 C 365.609 167.671,365.294 165.672,366.164 158.986 C 369.384 134.242,369.042 128.195,364.374 127.332 C 358.022 126.159,355.205 128.485,354.884 135.167 C 354.585 141.378,346.915 159.115,339.670 170.348 C 338.200 172.628,336.606 175.518,336.127 176.771 C 334.795 180.256,332.656 180.571,331.659 177.428 C 331.439 176.734,330.901 175.510,330.463 174.708 C 329.504 172.952,329.473 172.339,330.286 171.295 C 331.424 169.835,331.905 168.518,332.100 166.333 C 332.206 165.142,332.741 161.767,333.288 158.833 C 336.757 140.241,335.584 135.153,327.833 135.177 C 321.982 135.194,320.736 136.402,321.858 140.968 C 322.680 144.314,322.636 149.407,321.719 157.167 C 321.328 160.467,320.868 165.117,320.696 167.500 C 320.144 175.121,314.245 190.174,311.544 190.852 C 307.292 191.919,306.518 186.969,308.045 168.462 C 309.648 149.039,309.175 144.309,305.463 142.626 C 303.762 141.854,303.308 141.486,303.154 140.750 C 302.481 137.540,302.208 136.702,301.474 135.581 C 298.916 131.674,292.215 130.197,285.195 131.993 C 272.826 135.156,265.367 150.220,266.757 169.228 C 267.536 179.884,259.923 192.056,257.527 183.987 C 256.185 179.468,256.066 162.780,257.194 137.228 C 257.882 121.630,257.752 106.964,256.913 105.427 C 255.446 102.742,251.375 103.162,249.612 106.181 C 248.879 107.436,247.996 114.452,246.851 128.129 C 245.807 140.600,245.676 140.843,241.000 139.000 C 238.767 138.120,234.955 138.116,231.532 138.992 C 222.530 141.294,216.826 148.694,214.639 160.909 C 214.262 163.017,213.571 165.813,213.105 167.121 C 212.039 170.113,208.930 180.480,207.843 184.667 C 205.685 192.975,202.744 198.352,200.372 198.323 C 197.187 198.284,196.413 193.865,197.017 179.167 C 197.538 166.493,197.333 151.959,196.611 150.333 C 195.096 146.926,190.018 146.738,187.616 150.000 C 186.894 150.981,186.226 155.410,185.657 162.996 C 185.199 169.101,185.046 169.566,181.360 176.006 C 169.394 196.917,165.833 197.932,162.467 181.389 C 161.132 174.827,161.241 174.201,164.784 168.161 C 175.076 150.610,180.439 132.112,180.484 114.000 C 180.499 108.200,180.453 107.729,179.706 106.077 C 177.616 101.453,171.926 98.812,167.008 100.183 M172.449 105.083 C 174.756 108.187,172.669 133.346,168.834 148.667 C 162.925 172.270,158.934 167.109,162.131 140.000 C 165.669 109.993,168.636 99.954,172.449 105.083 M189.610 131.323 C 184.324 134.198,185.987 143.000,191.817 143.000 C 195.979 143.000,198.664 137.746,196.583 133.673 C 195.179 130.925,192.193 129.919,189.610 131.323 M292.789 135.460 C 293.395 135.713,294.703 136.843,295.695 137.971 C 296.688 139.099,298.051 140.386,298.723 140.831 C 300.447 141.972,300.566 142.674,299.392 144.752 C 297.883 147.421,297.452 150.728,297.033 162.833 C 296.739 171.347,296.406 172.743,293.464 177.782 C 287.787 187.504,280.517 185.644,278.680 174.000 C 275.783 155.636,284.445 131.974,292.789 135.460 M241.100 142.537 C 241.687 142.833,242.667 143.545,243.278 144.121 C 245.463 146.176,245.436 146.006,245.555 158.667 L 245.664 170.167 244.797 172.833 C 237.771 194.447,226.892 189.697,226.095 164.667 C 225.651 150.688,233.703 138.812,241.100 142.537 M125.079 145.063 C 130.304 146.628,134.191 158.359,132.008 165.972 C 130.359 171.721,118.230 169.605,115.485 163.091 C 111.159 152.820,116.633 142.533,125.079 145.063 M84.929 169.020 C 82.662 170.341,80.917 172.716,80.338 175.267 C 80.017 176.679,79.522 178.658,79.236 179.667 C 78.950 180.675,78.621 183.525,78.505 186.000 C 78.216 192.171,77.406 201.499,76.820 205.414 C 76.132 210.005,76.176 210.752,77.194 211.770 C 79.757 214.333,87.782 213.257,89.894 210.067 C 91.178 208.128,91.195 203.307,90.000 178.592 C 89.570 169.693,88.203 167.112,84.929 169.020 M115.370 172.458 C 118.397 173.841,120.187 174.261,124.586 174.622 C 129.702 175.041,130.462 176.293,128.270 180.697 C 123.172 190.940,112.762 189.386,110.483 178.042 C 109.205 171.678,110.477 170.224,115.370 172.458 M348.933 199.400 C 350.231 200.697,346.894 213.282,343.931 218.267 C 339.655 225.461,334.393 225.882,334.758 219.000 C 335.112 212.320,346.335 196.802,348.933 199.400 M56.384 222.749 C 53.419 225.714,78.019 269.667,82.645 269.667 C 83.866 269.667,82.719 267.251,79.444 262.926 C 72.095 253.221,64.558 239.707,59.622 227.386 C 57.865 223.000,57.153 221.980,56.384 222.749 M349.766 232.750 C 349.390 233.162,347.518 236.575,345.607 240.333 C 313.996 302.499,246.845 336.041,177.835 324.135 C 148.662 319.102,119.463 304.335,97.833 283.676 C 94.786 280.765,93.502 279.805,92.230 279.486 C 89.936 278.910,91.850 281.509,97.554 286.716 C 172.778 355.390,290.253 338.188,342.600 250.833 C 345.756 245.566,351.215 234.726,351.537 233.083 C 351.801 231.740,350.850 231.561,349.766 232.750 " stroke="none" fill="#317bb7" fill-rule="evenodd"></path><path id="path1" d="M0.000 166.667 L 0.000 333.333 200.000 333.333 L 400.000 333.333 400.000 166.667 L 400.000 0.000 200.000 0.000 L 0.000 0.000 0.000 166.667 M220.924 8.857 C 239.359 10.587,257.020 15.395,273.833 23.258 C 282.211 27.176,283.374 28.621,280.003 30.917 C 278.245 32.114,277.077 31.895,271.370 29.302 C 191.926 -6.799,100.248 26.930,64.651 105.355 C 61.331 112.670,59.597 113.948,58.402 109.962 C 56.879 104.877,61.490 94.363,71.936 79.101 C 75.581 73.777,76.639 72.006,77.021 70.589 C 77.205 69.905,78.146 68.405,79.112 67.256 C 80.078 66.107,81.194 64.630,81.592 63.974 C 82.028 63.257,83.017 62.402,84.075 61.828 C 85.162 61.238,88.114 58.659,91.809 55.070 C 127.275 20.623,172.774 4.338,220.924 8.857 M347.262 10.345 C 351.700 11.065,354.976 12.958,355.517 15.116 C 357.411 22.663,333.545 39.635,300.333 54.357 C 294.478 56.953,294.923 56.540,281.385 71.901 C 272.001 82.548,270.811 83.667,268.866 83.667 C 266.709 83.667,266.141 81.775,266.452 75.629 C 266.814 68.474,266.859 68.494,258.117 71.850 C 228.523 83.210,196.326 93.350,185.562 94.700 C 181.065 95.263,174.044 94.292,166.260 92.029 C 164.375 91.481,160.733 90.502,158.167 89.852 C 152.362 88.384,151.709 88.117,151.456 87.111 C 150.870 84.776,154.150 83.823,161.714 84.130 C 170.483 84.486,170.663 83.698,164.072 73.779 C 158.045 64.707,158.058 64.449,164.673 62.484 C 171.608 60.423,171.045 60.278,180.159 66.482 C 191.578 74.254,195.751 75.141,201.667 71.051 C 205.000 68.747,209.593 66.667,211.345 66.667 C 213.455 66.667,228.758 60.153,230.750 58.408 C 233.527 55.974,225.888 52.908,201.500 46.672 C 193.009 44.500,192.000 44.098,192.000 42.889 C 192.000 41.488,193.312 40.484,196.943 39.107 L 199.167 38.263 236.000 38.504 L 272.833 38.744 274.833 37.915 C 275.933 37.459,280.658 35.286,285.333 33.087 C 335.831 9.329,337.415 8.747,347.262 10.345 M317.000 53.015 C 317.650 53.349,322.484 58.253,323.229 59.333 C 323.544 59.792,325.200 61.742,326.908 63.667 C 328.617 65.592,330.813 68.067,331.789 69.167 C 340.020 78.445,349.829 95.386,355.915 110.833 C 358.603 117.657,358.295 120.000,354.710 120.000 C 352.789 120.000,352.018 118.888,349.507 112.500 C 345.416 102.094,339.455 90.907,333.223 81.940 C 324.789 69.806,321.915 66.155,318.839 63.667 C 315.765 61.181,311.667 56.412,311.667 55.322 C 311.667 53.080,314.628 51.799,317.000 53.015 M90.984 96.151 C 92.361 97.471,92.465 98.409,91.689 102.543 C 90.354 109.657,90.034 122.223,90.680 142.167 C 90.864 147.850,91.077 155.825,91.152 159.888 C 91.228 163.952,91.444 169.352,91.632 171.888 C 92.983 190.040,93.200 208.481,92.086 210.564 C 89.333 215.716,77.804 217.037,75.013 212.520 C 74.190 211.189,74.145 209.394,74.821 204.809 C 75.608 199.462,76.023 194.640,76.367 186.833 C 76.544 182.800,76.821 178.150,76.981 176.500 C 77.142 174.850,77.187 170.888,77.082 167.696 C 76.824 159.861,76.999 160.016,70.333 161.721 C 66.934 162.590,57.781 165.618,56.287 166.368 C 54.339 167.344,54.335 167.391,54.322 185.800 C 54.308 204.563,54.029 210.584,53.073 212.747 C 50.651 218.222,40.498 220.176,38.142 215.619 C 37.524 214.423,37.578 212.968,38.455 207.167 C 40.474 193.822,40.502 173.333,38.503 173.333 C 37.865 173.333,30.034 176.808,25.280 179.200 C 17.058 183.336,13.900 179.510,19.145 171.765 C 22.083 167.429,25.068 165.512,33.046 162.842 C 40.723 160.272,40.016 163.019,39.140 139.167 C 38.850 131.283,38.587 119.883,38.556 113.833 L 38.500 102.833 39.333 101.184 C 41.765 96.372,48.286 97.168,50.542 102.553 C 52.007 106.049,52.863 116.967,53.781 143.874 C 54.084 152.746,54.290 155.712,54.631 156.124 C 55.254 156.874,56.398 156.814,63.047 155.679 C 66.230 155.136,70.183 154.528,71.833 154.326 C 75.258 153.908,76.512 153.508,76.870 152.719 C 77.008 152.415,77.230 144.667,77.364 135.500 C 77.747 109.300,78.685 101.280,81.782 97.753 C 84.245 94.948,88.885 94.140,90.984 96.151 M175.557 99.169 C 181.204 101.944,182.510 104.807,182.474 114.333 C 182.403 132.845,176.969 151.418,166.334 169.500 C 163.155 174.906,163.074 175.903,165.156 184.049 C 167.511 193.266,169.157 192.632,176.963 179.500 C 183.540 168.435,182.906 170.399,184.178 157.167 C 184.853 150.148,185.039 149.584,187.442 147.271 L 189.411 145.376 187.658 143.771 C 181.677 138.298,184.570 128.667,192.194 128.667 C 199.266 128.667,201.885 138.424,196.201 143.591 C 194.673 144.980,194.684 145.067,196.594 146.938 C 198.911 149.209,199.090 150.056,199.317 159.833 C 199.459 165.987,199.629 168.380,199.968 168.981 C 200.946 170.720,200.687 179.723,199.565 182.981 C 198.251 186.797,198.656 194.967,200.188 195.554 C 201.787 196.168,205.375 188.207,205.375 184.049 C 205.375 182.787,205.620 181.290,205.977 180.376 C 206.308 179.528,206.852 177.264,207.186 175.345 C 207.727 172.240,207.958 171.617,209.290 169.678 C 211.221 166.867,211.787 165.334,212.627 160.640 C 215.000 147.390,221.091 139.634,231.219 136.967 C 234.496 136.104,239.199 136.022,241.280 136.790 C 244.112 137.837,244.028 138.078,245.000 126.167 C 246.501 107.786,247.084 104.909,249.693 103.020 C 253.154 100.512,257.044 101.179,258.712 104.566 C 259.702 106.576,259.828 123.408,259.000 143.000 C 258.438 156.296,258.397 175.732,258.922 179.955 C 259.606 185.469,261.029 184.762,263.715 177.572 C 264.823 174.604,264.809 174.793,264.657 165.167 C 264.322 143.829,274.927 129.371,291.000 129.251 C 298.487 129.196,302.670 131.834,304.683 137.881 C 305.344 139.868,305.529 140.105,307.135 141.011 C 311.155 143.280,311.778 148.694,310.130 167.000 C 308.902 180.631,309.362 189.262,311.256 188.150 C 313.429 186.873,318.241 173.202,318.683 167.049 C 318.863 164.547,319.324 159.800,319.709 156.500 C 320.662 148.315,320.650 144.576,319.660 140.780 L 318.877 137.779 319.552 136.473 C 321.699 132.321,332.553 131.762,335.329 135.661 C 337.461 138.655,337.551 147.010,335.568 157.833 C 333.941 166.714,333.843 170.128,335.204 170.571 C 336.779 171.083,339.570 167.220,343.924 158.500 C 350.761 144.808,352.623 139.796,352.967 134.167 C 353.388 127.258,355.681 125.138,362.679 125.186 C 370.889 125.242,371.716 129.230,368.777 154.589 C 367.803 163.000,367.860 163.657,369.463 162.461 C 371.726 160.772,381.140 147.836,383.828 142.721 C 386.362 137.899,391.056 136.611,393.480 140.072 C 396.132 143.858,386.868 158.272,369.854 176.833 C 363.866 183.366,364.452 182.227,362.039 192.023 C 357.132 211.942,352.543 220.869,344.833 225.495 C 334.593 231.638,324.481 225.645,326.777 214.794 C 327.896 209.504,331.643 204.338,344.153 190.833 C 350.124 184.387,350.136 184.364,350.820 177.333 C 352.050 164.693,351.712 163.812,347.970 169.913 C 347.004 171.488,345.140 174.151,343.826 175.831 C 342.513 177.512,340.798 179.753,340.016 180.812 C 337.292 184.499,331.955 185.793,326.236 184.152 C 323.994 183.509,323.478 183.853,321.268 187.461 C 312.953 201.041,302.974 201.538,297.655 188.637 C 296.223 185.165,296.039 185.091,293.770 187.056 C 288.397 191.710,279.659 192.043,273.177 187.840 C 270.367 186.018,270.220 186.009,268.888 187.572 C 259.898 198.130,252.608 198.088,247.627 187.448 C 245.672 183.272,245.940 183.288,242.207 187.126 C 235.825 193.687,226.746 193.909,219.002 187.694 C 216.405 185.610,216.264 185.669,214.059 189.745 C 204.185 208.004,190.856 208.973,185.330 191.833 C 184.031 187.803,183.804 187.829,180.826 192.344 C 176.198 199.364,169.468 202.302,162.667 200.272 C 156.264 198.361,149.372 185.937,147.485 172.905 C 147.358 172.027,146.981 170.977,146.647 170.571 L 146.039 169.833 144.154 170.833 C 140.664 172.685,139.782 173.690,138.797 176.939 C 135.007 189.441,127.784 195.126,115.667 195.148 C 107.482 195.162,102.132 192.620,98.776 187.120 C 93.623 178.678,96.000 159.164,102.729 154.664 C 103.691 154.021,104.657 153.121,104.877 152.664 C 105.096 152.207,105.814 150.687,106.472 149.285 C 108.623 144.703,112.918 141.558,118.474 140.495 C 130.887 138.119,139.372 144.949,140.530 158.248 C 140.888 162.352,141.457 162.804,143.976 160.979 C 145.958 159.543,146.216 158.642,146.449 152.333 C 147.066 135.628,151.617 115.481,156.914 106.000 C 161.023 98.646,168.739 95.819,175.557 99.169 M169.351 109.054 C 167.180 113.979,162.126 152.910,163.233 156.186 L 163.564 157.167 164.271 156.014 C 165.101 154.659,165.926 152.042,167.311 146.369 C 171.245 130.259,172.837 101.147,169.351 109.054 M287.981 138.557 C 278.192 147.401,277.838 186.583,287.593 181.538 C 292.073 179.221,294.908 171.722,294.978 162.000 C 295.017 156.435,295.923 147.786,296.728 145.288 L 297.441 143.074 295.804 141.149 C 291.997 136.673,290.585 136.205,287.981 138.557 M236.411 144.499 C 228.791 147.811,225.759 164.013,230.049 178.500 C 232.882 188.066,238.974 184.971,242.949 171.947 C 243.914 168.786,243.744 148.265,242.740 146.545 C 241.501 144.424,238.682 143.513,236.411 144.499 M120.879 147.155 C 116.845 148.593,115.012 153.322,116.326 158.903 C 117.701 164.740,120.361 167.000,125.856 167.000 C 129.946 167.000,130.333 166.496,130.333 161.169 C 130.333 150.927,126.449 145.169,120.879 147.155 M112.556 174.222 C 112.118 174.660,112.345 177.644,112.968 179.647 C 115.316 187.191,122.548 187.435,126.285 180.097 C 127.682 177.354,127.266 176.878,123.167 176.527 C 120.108 176.266,117.381 175.624,115.288 174.675 C 113.769 173.985,112.931 173.847,112.556 174.222 M344.514 204.926 C 339.907 209.516,335.445 218.960,336.999 220.832 C 338.742 222.932,342.334 218.371,344.844 210.871 C 346.903 204.718,346.789 202.660,344.514 204.926 M58.766 220.467 C 59.170 220.907,59.857 222.220,60.294 223.384 C 65.309 236.760,72.677 250.349,80.938 261.456 C 82.728 263.864,85.034 267.108,86.061 268.667 C 88.746 272.737,91.624 275.576,104.765 287.112 C 146.257 323.538,207.264 334.383,259.833 314.679 C 296.779 300.830,326.292 274.097,344.498 237.986 C 348.324 230.399,351.071 227.402,353.903 227.727 C 359.001 228.312,342.319 258.257,327.216 275.630 C 262.733 349.805,145.727 349.237,82.949 274.445 C 69.211 258.078,53.833 231.025,53.833 223.223 C 53.833 220.309,56.999 218.541,58.766 220.467 M218.795 229.417 C 218.661 229.646,217.255 231.408,215.670 233.333 C 214.085 235.258,211.227 238.858,209.318 241.333 C 204.205 247.962,198.187 253.965,197.422 253.200 C 197.313 253.091,197.956 252.064,198.850 250.918 C 199.744 249.771,202.305 246.433,204.541 243.500 C 210.521 235.653,213.435 232.508,217.000 230.054 C 218.601 228.951,219.190 228.742,218.795 229.417 M232.000 232.081 C 231.542 232.285,230.146 232.950,228.898 233.559 C 227.651 234.168,226.526 234.664,226.398 234.660 C 225.871 234.646,229.562 232.555,230.812 232.161 C 232.492 231.630,233.111 231.589,232.000 232.081 M186.333 242.017 C 186.333 246.251,178.579 250.338,173.058 249.014 C 169.536 248.169,169.959 247.686,174.956 246.845 C 179.453 246.089,182.652 244.670,184.417 242.650 C 186.085 240.742,186.333 240.660,186.333 242.017 M164.008 242.681 C 164.590 243.769,164.288 245.805,163.522 245.950 C 162.156 246.209,161.339 243.085,162.583 242.360 C 163.416 241.875,163.598 241.916,164.008 242.681 M111.558 246.179 C 113.562 248.334,113.741 251.000,111.882 251.000 C 111.691 251.000,110.215 251.750,108.603 252.667 C 104.766 254.848,103.191 254.730,101.805 252.157 C 100.929 250.531,101.373 249.577,104.013 247.412 C 108.372 243.838,109.248 243.695,111.558 246.179 M304.401 246.177 C 305.345 247.191,306.878 248.428,307.809 248.927 C 309.963 250.081,310.255 251.452,308.766 253.413 C 306.513 256.379,304.846 256.158,300.605 252.330 C 297.475 249.506,297.535 246.957,300.776 244.980 C 302.287 244.059,302.494 244.128,304.401 246.177 M121.798 257.961 C 122.110 258.306,122.524 259.168,122.717 259.877 C 123.206 261.667,123.563 262.000,124.989 262.000 C 127.967 262.000,127.958 263.769,124.963 267.492 C 121.423 271.893,118.065 271.782,118.007 267.262 C 117.998 266.521,117.000 266.000,115.589 266.000 C 112.594 266.000,112.890 263.856,116.390 260.188 C 119.341 257.095,120.560 256.593,121.798 257.961 M291.932 258.417 C 292.544 259.585,294.993 262.128,296.441 263.099 C 298.449 264.446,295.783 268.667,292.924 268.667 C 291.112 268.667,286.000 263.590,286.000 261.791 C 286.000 258.667,290.671 256.010,291.932 258.417 M279.170 270.004 C 279.608 270.415,280.201 271.439,280.487 272.280 C 280.774 273.121,281.395 274.367,281.867 275.049 C 283.009 276.696,282.724 277.524,280.720 278.380 C 279.866 278.744,278.763 279.483,278.269 280.021 C 276.451 282.002,274.935 281.167,271.944 276.540 C 270.323 274.032,270.249 272.658,271.662 271.337 C 274.199 268.968,277.452 268.390,279.170 270.004 M140.600 272.733 C 141.959 274.093,139.155 279.354,136.267 280.863 C 134.093 281.999,131.167 280.735,131.167 278.661 C 131.167 277.459,131.357 277.326,133.793 276.829 C 134.713 276.641,135.245 276.171,137.536 273.529 C 138.611 272.289,139.838 271.971,140.600 272.733 M262.082 278.797 C 263.003 279.717,263.500 283.766,262.881 285.311 C 262.580 286.064,262.333 287.094,262.333 287.599 C 262.333 292.641,257.822 289.276,256.068 282.926 C 255.280 280.070,260.068 276.782,262.082 278.797 M156.221 280.514 C 162.088 283.952,158.579 292.705,151.904 291.281 C 147.127 290.262,145.299 284.297,148.770 281.055 C 150.748 279.207,153.634 278.998,156.221 280.514 M151.857 284.190 C 150.622 285.426,151.819 287.618,153.498 287.197 C 154.000 287.071,154.494 286.621,154.687 286.112 C 155.369 284.320,153.200 282.847,151.857 284.190 M172.196 287.167 C 173.055 287.822,173.680 288.000,175.121 288.000 C 178.481 288.000,178.789 289.147,176.190 291.975 C 175.194 293.058,174.126 294.444,173.816 295.055 C 172.006 298.627,169.676 298.232,169.655 294.350 C 169.649 293.149,169.437 291.204,169.185 290.027 C 168.416 286.441,169.676 285.244,172.196 287.167 M239.756 287.019 C 242.538 287.792,244.439 291.133,243.686 293.927 C 242.777 297.302,237.117 300.082,235.019 298.184 C 234.256 297.494,232.333 291.883,232.333 290.348 C 232.333 287.851,236.318 286.064,239.756 287.019 M222.200 290.922 C 223.763 291.965,224.286 299.411,222.894 300.803 C 221.824 301.873,221.492 301.876,219.532 300.833 C 218.670 300.375,217.807 300.000,217.614 300.000 C 217.421 300.000,216.817 300.375,216.273 300.833 C 213.915 302.817,212.769 301.587,212.242 296.508 C 211.722 291.497,213.286 289.726,216.537 291.644 C 218.045 292.534,218.524 292.512,219.727 291.500 C 220.727 290.659,221.527 290.472,222.200 290.922 M198.903 291.732 C 199.913 292.681,202.174 299.595,201.870 300.806 C 201.557 302.052,200.362 302.214,198.174 301.307 C 196.364 300.557,196.306 300.554,194.507 301.121 C 190.880 302.264,190.371 300.569,192.855 295.623 C 195.180 290.993,196.923 289.872,198.903 291.732 M237.723 292.387 C 237.784 292.816,238.058 293.167,238.333 293.167 C 239.056 293.167,238.957 291.866,238.223 291.725 C 237.750 291.634,237.637 291.782,237.723 292.387 " stroke="none" fill="#fbfbfb" fill-rule="evenodd"></path><path id="path2" d="M340.000 12.205 C 337.633 12.492,333.756 13.441,331.000 14.406 C 327.988 15.462,325.701 16.507,294.651 31.022 C 283.734 36.125,274.128 40.451,273.304 40.636 C 272.303 40.860,259.923 40.868,235.939 40.660 C 197.811 40.329,197.576 40.336,196.319 41.851 C 195.536 42.795,196.632 43.241,205.167 45.458 C 230.370 52.002,237.165 55.372,233.139 59.332 C 232.007 60.445,215.042 68.414,212.500 69.027 C 210.471 69.516,209.353 70.032,205.486 72.264 C 196.893 77.223,191.640 76.611,180.845 69.393 C 170.442 62.438,171.344 62.759,166.232 64.193 C 161.034 65.652,161.043 65.388,165.930 72.833 C 170.822 80.289,171.483 82.122,170.182 84.636 C 169.343 86.260,165.159 86.958,161.219 86.132 C 160.008 85.878,157.333 86.272,157.333 86.704 C 157.333 87.217,159.197 87.882,165.593 89.652 C 174.937 92.237,176.485 92.500,182.333 92.496 L 187.500 92.492 194.667 90.600 C 214.281 85.420,234.108 78.869,257.454 69.855 C 268.660 65.529,268.667 65.532,268.667 74.964 C 268.667 83.500,268.178 83.746,281.795 68.351 C 294.450 54.045,292.582 55.632,301.667 51.466 C 337.729 34.930,359.871 18.082,351.349 13.661 C 349.241 12.568,343.296 11.805,340.000 12.205 M82.459 67.417 C 81.475 68.540,80.900 69.333,81.070 69.333 C 81.153 69.333,81.704 68.733,82.293 68.000 C 83.437 66.576,83.553 66.168,82.459 67.417 M337.140 173.848 C 336.652 174.682,336.309 175.420,336.377 175.488 C 336.446 175.557,336.914 174.875,337.418 173.973 C 338.569 171.910,338.337 171.806,337.140 173.848 M329.676 173.000 C 329.676 173.092,330.123 174.050,330.671 175.130 C 331.219 176.210,331.667 176.917,331.667 176.700 C 331.667 176.484,331.372 175.750,331.013 175.070 C 330.278 173.680,329.677 172.750,329.676 173.000 M337.131 180.109 C 336.379 180.691,335.479 181.356,335.131 181.587 C 334.784 181.818,335.100 181.720,335.833 181.369 C 336.567 181.019,337.530 180.342,337.975 179.866 C 339.019 178.747,338.819 178.805,337.131 180.109 " stroke="none" fill="#878787" fill-rule="evenodd"></path><path id="path3" d="M196.830 8.328 C 157.262 10.453,121.237 26.487,91.809 55.070 C 88.114 58.659,85.162 61.238,84.075 61.828 C 83.017 62.402,82.028 63.257,81.592 63.974 C 81.194 64.630,80.078 66.107,79.112 67.256 C 78.146 68.405,77.205 69.905,77.021 70.589 C 76.639 72.006,75.581 73.777,71.936 79.101 C 61.490 94.363,56.879 104.877,58.402 109.962 C 59.597 113.948,61.331 112.670,64.651 105.355 C 100.248 26.930,191.926 -6.799,271.370 29.302 C 277.077 31.895,278.245 32.114,280.003 30.917 C 283.374 28.621,282.211 27.176,273.833 23.258 C 249.993 12.108,223.195 6.912,196.830 8.328 M337.185 10.538 C 331.424 11.578,326.491 13.723,285.333 33.087 C 280.658 35.286,275.933 37.459,274.833 37.915 L 272.833 38.744 236.000 38.504 L 199.167 38.263 196.943 39.107 C 193.312 40.484,192.000 41.488,192.000 42.889 C 192.000 44.098,193.009 44.500,201.500 46.672 C 225.888 52.908,233.527 55.974,230.750 58.408 C 228.758 60.153,213.455 66.667,211.345 66.667 C 209.593 66.667,205.000 68.747,201.667 71.051 C 195.751 75.141,191.578 74.254,180.159 66.482 C 171.045 60.278,171.608 60.423,164.673 62.484 C 158.058 64.449,158.045 64.707,164.072 73.779 C 170.663 83.698,170.483 84.486,161.714 84.130 C 154.150 83.823,150.870 84.776,151.456 87.111 C 151.709 88.117,152.362 88.384,158.167 89.852 C 160.733 90.502,164.375 91.481,166.260 92.029 C 174.044 94.292,181.065 95.263,185.562 94.700 C 196.326 93.350,228.523 83.210,258.117 71.850 C 266.859 68.494,266.814 68.474,266.452 75.629 C 266.141 81.775,266.709 83.667,268.866 83.667 C 270.811 83.667,272.001 82.548,281.385 71.901 C 294.923 56.540,294.478 56.953,300.333 54.357 C 333.545 39.635,357.411 22.663,355.517 15.116 C 354.531 11.186,345.747 8.992,337.185 10.538 M219.643 10.840 C 238.401 12.566,256.036 17.250,272.254 24.814 C 277.423 27.224,278.545 27.967,278.238 28.769 C 277.862 29.748,276.433 29.405,271.723 27.206 C 216.064 1.221,149.766 10.431,103.191 50.617 C 87.088 64.512,73.393 82.324,64.318 101.176 C 61.445 107.144,60.899 107.875,60.297 106.553 C 59.197 104.140,66.786 89.920,76.701 75.812 C 78.255 73.601,80.026 70.788,80.637 69.561 C 81.262 68.303,82.250 66.931,82.901 66.415 C 83.537 65.912,87.534 62.125,91.785 58.000 C 121.817 28.856,154.882 13.510,194.000 10.563 C 198.668 10.211,214.690 10.384,219.643 10.840 M348.462 11.164 C 354.018 12.342,356.210 15.000,354.454 18.433 C 350.376 26.409,331.651 39.157,307.333 50.512 C 297.675 55.023,294.553 56.575,293.826 57.228 C 293.209 57.783,285.030 66.929,276.274 76.856 C 270.808 83.053,269.622 83.848,267.814 82.527 C 267.220 82.094,267.158 81.540,267.063 75.855 C 266.960 69.739,266.948 69.648,266.162 69.133 C 265.195 68.499,265.711 68.351,256.148 72.008 C 233.026 80.850,213.433 87.284,195.000 92.089 C 182.788 95.272,179.987 95.143,163.167 90.620 C 153.404 87.995,152.786 87.792,152.534 87.136 C 151.727 85.031,155.845 84.159,163.671 84.777 C 170.841 85.343,170.984 83.105,164.407 73.275 C 160.020 66.718,159.635 65.735,160.977 64.521 C 161.920 63.667,168.189 61.895,170.385 61.862 L 172.269 61.833 179.551 66.732 C 187.515 72.089,189.604 73.199,192.644 73.689 C 195.462 74.143,200.428 73.254,202.167 71.984 C 204.233 70.476,209.655 67.923,211.711 67.491 C 213.952 67.019,221.354 63.805,229.095 59.943 C 233.220 57.884,233.271 56.657,229.311 54.656 C 225.489 52.725,215.796 49.737,201.858 46.192 C 191.429 43.540,190.375 42.147,196.911 39.651 L 198.833 38.918 235.674 39.135 C 263.573 39.299,272.796 39.256,273.674 38.959 C 274.312 38.743,278.208 36.994,282.333 35.073 C 286.458 33.152,293.133 30.043,297.167 28.164 C 301.200 26.285,309.375 22.465,315.333 19.674 C 332.370 11.694,335.042 10.819,342.667 10.722 C 344.643 10.697,347.166 10.890,348.462 11.164 M314.111 52.573 C 309.934 53.339,311.966 58.108,318.839 63.667 C 321.915 66.155,324.789 69.806,333.223 81.940 C 339.455 90.907,345.416 102.094,349.507 112.500 C 352.018 118.888,352.789 120.000,354.710 120.000 C 358.295 120.000,358.603 117.657,355.915 110.833 C 349.829 95.386,340.020 78.445,331.789 69.167 C 330.813 68.067,328.617 65.592,326.908 63.667 C 325.200 61.742,323.544 59.792,323.229 59.333 C 320.465 55.319,316.236 52.184,314.111 52.573 M318.470 57.125 C 321.408 60.062,321.858 62.046,319.353 61.008 C 318.228 60.542,314.333 56.561,314.333 55.877 C 314.333 54.225,316.106 54.760,318.470 57.125 M333.757 74.960 C 343.302 87.803,356.682 113.634,355.451 116.841 C 354.729 118.723,353.738 117.401,351.314 111.320 C 346.689 99.719,339.994 87.649,332.185 76.833 C 329.491 73.103,329.162 72.441,329.686 71.810 C 330.334 71.029,331.513 71.941,333.757 74.960 M84.498 95.765 C 78.911 98.429,77.816 104.528,77.364 135.500 C 77.230 144.667,77.008 152.415,76.870 152.719 C 76.512 153.508,75.258 153.908,71.833 154.326 C 70.183 154.528,66.230 155.136,63.047 155.679 C 56.398 156.814,55.254 156.874,54.631 156.124 C 54.290 155.712,54.084 152.746,53.781 143.874 C 52.863 116.967,52.007 106.049,50.542 102.553 C 48.286 97.168,41.765 96.372,39.333 101.184 L 38.500 102.833 38.556 113.833 C 38.587 119.883,38.850 131.283,39.140 139.167 C 40.016 163.019,40.723 160.272,33.046 162.842 C 25.068 165.512,22.083 167.429,19.145 171.765 C 13.900 179.510,17.058 183.336,25.280 179.200 C 30.034 176.808,37.865 173.333,38.503 173.333 C 40.502 173.333,40.474 193.822,38.455 207.167 C 37.578 212.968,37.524 214.423,38.142 215.619 C 40.498 220.176,50.651 218.222,53.073 212.747 C 54.029 210.584,54.308 204.563,54.322 185.800 C 54.335 167.391,54.339 167.344,56.287 166.368 C 57.781 165.618,66.934 162.590,70.333 161.721 C 76.999 160.016,76.824 159.861,77.082 167.696 C 77.187 170.888,77.142 174.850,76.981 176.500 C 76.821 178.150,76.544 182.800,76.367 186.833 C 76.023 194.640,75.608 199.462,74.821 204.809 C 74.145 209.394,74.190 211.189,75.013 212.520 C 77.804 217.037,89.333 215.716,92.086 210.564 C 93.200 208.481,92.983 190.040,91.632 171.888 C 91.444 169.352,91.228 163.952,91.152 159.888 C 91.077 155.825,90.864 147.850,90.680 142.167 C 90.034 122.223,90.354 109.657,91.689 102.543 C 92.063 100.551,92.278 98.509,92.168 98.007 C 91.573 95.299,87.792 94.194,84.498 95.765 M89.259 97.519 C 90.157 98.148,90.213 99.385,89.510 103.060 C 88.292 109.425,88.072 129.274,88.952 153.388 C 89.205 160.324,89.094 161.226,87.763 163.091 C 87.209 163.866,86.643 164.875,86.505 165.333 C 86.143 166.537,85.341 167.333,84.491 167.333 C 84.084 167.333,83.039 167.648,82.168 168.034 C 79.773 169.093,79.334 168.512,79.048 163.899 C 78.640 157.305,77.185 157.158,62.002 162.179 C 51.318 165.711,52.336 163.355,52.324 184.573 C 52.315 201.830,51.997 210.405,51.318 211.726 C 49.460 215.341,42.751 217.448,40.445 215.142 C 39.485 214.182,39.484 214.350,40.467 207.500 C 41.709 198.835,42.536 175.466,41.690 172.905 C 40.711 169.938,38.512 170.466,25.852 176.708 C 19.691 179.746,17.908 179.569,19.152 176.043 C 21.128 170.441,24.840 167.634,34.333 164.563 C 38.477 163.222,39.714 162.678,40.583 161.812 L 41.667 160.733 41.667 156.346 C 41.667 153.933,41.429 145.556,41.138 137.730 C 40.365 116.917,40.336 103.466,41.061 102.142 C 43.173 98.289,47.854 99.948,49.165 105.014 C 50.146 108.808,51.077 122.904,51.672 143.000 C 52.206 160.996,51.368 159.827,62.333 157.876 C 64.992 157.404,69.398 156.728,72.126 156.375 C 79.641 155.402,79.312 156.134,79.331 140.333 C 79.358 118.108,80.391 104.451,82.330 100.683 C 83.886 97.660,87.261 96.119,89.259 97.519 M166.341 98.180 C 162.562 99.240,159.075 102.132,156.914 106.000 C 151.617 115.481,147.066 135.628,146.449 152.333 C 146.216 158.642,145.958 159.543,143.976 160.979 C 141.457 162.804,140.888 162.352,140.530 158.248 C 139.372 144.949,130.887 138.119,118.474 140.495 C 112.918 141.558,108.623 144.703,106.472 149.285 C 105.814 150.687,105.096 152.207,104.877 152.664 C 104.657 153.121,103.691 154.021,102.729 154.664 C 96.000 159.164,93.623 178.678,98.776 187.120 C 102.132 192.620,107.482 195.162,115.667 195.148 C 127.784 195.126,135.007 189.441,138.797 176.939 C 139.782 173.690,140.664 172.685,144.154 170.833 L 146.039 169.833 146.647 170.571 C 146.981 170.977,147.358 172.027,147.485 172.905 C 149.372 185.937,156.264 198.361,162.667 200.272 C 169.468 202.302,176.198 199.364,180.826 192.344 C 183.804 187.829,184.031 187.803,185.330 191.833 C 190.856 208.973,204.185 208.004,214.059 189.745 C 216.264 185.669,216.405 185.610,219.002 187.694 C 226.746 193.909,235.825 193.687,242.207 187.126 C 245.940 183.288,245.672 183.272,247.627 187.448 C 252.608 198.088,259.898 198.130,268.888 187.572 C 270.220 186.009,270.367 186.018,273.177 187.840 C 279.659 192.043,288.397 191.710,293.770 187.056 C 296.039 185.091,296.223 185.165,297.655 188.637 C 302.974 201.538,312.953 201.041,321.268 187.461 C 323.478 183.853,323.994 183.509,326.236 184.152 C 331.955 185.793,337.292 184.499,340.016 180.812 C 340.798 179.753,342.513 177.512,343.826 175.831 C 345.140 174.151,347.004 171.488,347.970 169.913 C 351.712 163.812,352.050 164.693,350.820 177.333 C 350.136 184.364,350.124 184.387,344.153 190.833 C 331.643 204.338,327.896 209.504,326.777 214.794 C 324.481 225.645,334.593 231.638,344.833 225.495 C 352.543 220.869,357.132 211.942,362.039 192.023 C 364.452 182.227,363.866 183.366,369.854 176.833 C 386.868 158.272,396.132 143.858,393.480 140.072 C 391.056 136.611,386.362 137.899,383.828 142.721 C 381.140 147.836,371.726 160.772,369.463 162.461 C 367.860 163.657,367.803 163.000,368.777 154.589 C 371.716 129.230,370.889 125.242,362.679 125.186 C 355.681 125.138,353.388 127.258,352.967 134.167 C 352.385 143.689,338.712 171.712,335.204 170.571 C 333.843 170.128,333.941 166.714,335.568 157.833 C 337.551 147.010,337.461 138.655,335.329 135.661 C 332.553 131.762,321.699 132.321,319.552 136.473 L 318.877 137.779 319.660 140.780 C 320.650 144.576,320.662 148.315,319.709 156.500 C 319.324 159.800,318.863 164.547,318.683 167.049 C 318.241 173.202,313.429 186.873,311.256 188.150 C 309.362 189.262,308.902 180.631,310.130 167.000 C 311.778 148.694,311.155 143.280,307.135 141.011 C 305.529 140.105,305.344 139.868,304.683 137.881 C 302.670 131.834,298.487 129.196,291.000 129.251 C 274.927 129.371,264.322 143.829,264.657 165.167 C 264.809 174.793,264.823 174.604,263.715 177.572 C 261.029 184.762,259.606 185.469,258.922 179.955 C 258.397 175.732,258.438 156.296,259.000 143.000 C 259.828 123.408,259.702 106.576,258.712 104.566 C 257.044 101.179,253.154 100.512,249.693 103.020 C 247.084 104.909,246.501 107.786,245.000 126.167 C 244.028 138.078,244.112 137.837,241.280 136.790 C 239.199 136.022,234.496 136.104,231.219 136.967 C 221.091 139.634,215.000 147.390,212.627 160.640 C 211.787 165.334,211.221 166.867,209.290 169.678 C 207.958 171.617,207.727 172.240,207.186 175.345 C 206.852 177.264,206.308 179.528,205.977 180.376 C 205.620 181.290,205.375 182.787,205.375 184.049 C 205.375 188.207,201.787 196.168,200.188 195.554 C 198.656 194.967,198.251 186.797,199.565 182.981 C 200.687 179.723,200.946 170.720,199.968 168.981 C 199.629 168.380,199.459 165.987,199.317 159.833 C 199.090 150.056,198.911 149.209,196.594 146.938 C 194.684 145.067,194.673 144.980,196.201 143.591 C 201.885 138.424,199.266 128.667,192.194 128.667 C 184.570 128.667,181.677 138.298,187.658 143.771 L 189.411 145.376 187.442 147.271 C 185.039 149.584,184.853 150.148,184.178 157.167 C 182.906 170.399,183.540 168.435,176.963 179.500 C 169.157 192.632,167.511 193.266,165.156 184.049 C 163.074 175.903,163.155 174.906,166.334 169.500 C 176.969 151.418,182.403 132.845,182.474 114.333 C 182.498 107.939,182.451 107.378,181.732 105.599 C 179.422 99.883,172.377 96.487,166.341 98.180 M173.768 100.529 C 178.795 102.242,180.505 105.672,180.484 114.000 C 180.439 132.112,175.076 150.610,164.784 168.161 C 161.241 174.201,161.132 174.827,162.467 181.389 C 165.833 197.932,169.394 196.917,181.360 176.006 C 185.046 169.566,185.199 169.101,185.657 162.996 C 186.226 155.410,186.894 150.981,187.616 150.000 C 190.018 146.738,195.096 146.926,196.611 150.333 C 197.333 151.959,197.538 166.493,197.017 179.167 C 196.413 193.865,197.187 198.284,200.372 198.323 C 202.796 198.352,207.329 189.623,207.866 183.889 C 207.955 182.942,208.316 181.117,208.670 179.833 C 209.023 178.550,209.549 176.353,209.838 174.951 C 210.171 173.335,210.737 171.838,211.383 170.862 C 212.744 168.808,213.806 165.560,214.639 160.909 C 216.826 148.694,222.530 141.294,231.532 138.992 C 234.955 138.116,238.767 138.120,241.000 139.000 C 245.676 140.843,245.807 140.600,246.851 128.129 C 247.996 114.452,248.879 107.436,249.612 106.181 C 251.375 103.162,255.446 102.742,256.913 105.427 C 257.752 106.964,257.882 121.630,257.194 137.228 C 255.719 170.650,256.237 184.738,258.994 186.163 C 260.927 187.163,262.430 185.830,264.327 181.431 C 266.851 175.575,267.122 174.218,266.757 169.228 C 265.367 150.220,272.826 135.156,285.195 131.993 C 292.215 130.197,298.916 131.674,301.474 135.581 C 302.208 136.702,302.481 137.540,303.154 140.750 C 303.308 141.486,303.762 141.854,305.463 142.626 C 309.175 144.309,309.648 149.039,308.045 168.462 C 306.518 186.969,307.292 191.919,311.544 190.852 C 314.245 190.174,320.144 175.121,320.696 167.500 C 320.868 165.117,321.328 160.467,321.719 157.167 C 322.636 149.407,322.680 144.314,321.858 140.968 C 320.736 136.402,321.982 135.194,327.833 135.177 C 335.585 135.153,336.771 140.309,333.277 158.833 C 332.724 161.767,332.194 165.442,332.099 167.000 C 331.948 169.478,331.806 169.988,330.963 171.064 C 329.784 172.570,329.766 172.997,330.839 174.005 C 331.611 174.730,332.003 175.696,332.486 178.061 C 332.986 180.511,334.990 179.296,335.806 176.049 C 336.371 173.798,337.289 172.226,338.379 171.642 C 342.059 169.673,354.552 142.063,354.884 135.167 C 355.205 128.485,358.022 126.159,364.374 127.332 C 369.042 128.195,369.384 134.242,366.164 158.986 C 365.294 165.672,365.609 167.671,367.452 167.156 C 369.698 166.528,381.146 151.835,385.333 144.207 C 387.401 140.438,389.598 139.264,391.333 141.000 C 394.006 143.673,384.163 158.267,367.168 176.832 C 362.187 182.274,362.473 181.703,360.362 190.402 C 354.905 212.889,349.599 222.327,340.868 225.074 C 333.893 227.269,328.576 224.154,328.547 217.855 C 328.519 211.860,331.720 207.152,347.095 190.573 C 351.998 185.287,352.147 184.959,352.805 178.000 C 354.166 163.582,354.167 160.724,352.806 160.202 C 351.656 159.761,351.213 160.321,346.987 167.563 C 345.897 169.431,343.584 172.881,341.846 175.229 C 340.108 177.578,338.449 179.838,338.160 180.252 C 336.600 182.477,331.096 183.554,327.176 182.401 C 322.871 181.134,322.502 181.289,320.184 185.333 C 312.346 199.009,303.330 199.443,299.032 186.352 C 297.530 181.777,296.522 181.525,292.988 184.845 C 287.593 189.911,279.356 190.109,273.149 185.320 C 270.503 183.278,269.438 183.420,267.423 186.083 C 259.793 196.168,252.684 195.680,248.799 184.806 C 246.817 179.259,245.590 178.868,242.912 182.928 C 237.136 191.686,227.380 192.664,219.445 185.282 C 216.234 182.295,215.389 182.572,212.968 187.409 C 203.682 205.954,191.417 206.911,186.801 189.452 C 185.172 183.290,184.024 183.327,180.138 189.667 C 177.019 194.754,174.740 196.832,170.833 198.154 C 160.870 201.524,153.495 192.707,149.515 172.667 C 148.300 166.550,147.618 166.197,142.815 169.194 C 138.953 171.605,137.880 172.751,137.185 175.205 C 134.148 185.932,128.682 191.568,119.935 192.987 C 110.828 194.465,102.964 191.273,99.975 184.884 C 96.034 176.463,98.399 159.748,104.021 156.289 C 105.941 155.108,106.585 154.249,107.687 151.397 C 109.756 146.046,113.874 143.102,120.451 142.271 C 131.263 140.906,137.755 147.123,138.551 159.604 C 138.882 164.786,140.004 165.714,143.500 163.701 C 147.733 161.262,148.177 160.256,148.467 152.423 C 149.178 133.295,155.103 110.161,160.872 103.993 C 164.506 100.108,168.994 98.903,173.768 100.529 M168.887 104.997 C 165.162 109.423,158.841 159.626,161.585 162.988 C 165.949 168.336,174.033 131.617,173.268 109.917 C 173.073 104.362,171.195 102.254,168.887 104.997 M171.082 108.855 C 172.898 115.082,167.824 150.217,164.271 156.014 L 163.564 157.167 163.233 156.186 C 162.407 153.742,164.655 133.325,167.528 117.167 C 169.054 108.586,170.213 105.875,171.082 108.855 M194.941 131.556 C 199.342 134.760,197.092 143.000,191.817 143.000 C 185.987 143.000,184.324 134.198,189.610 131.323 C 191.125 130.499,193.641 130.609,194.941 131.556 M288.384 135.718 C 279.482 140.125,274.543 173.448,281.575 181.664 C 285.970 186.799,291.566 183.416,295.715 173.115 C 296.752 170.541,296.772 170.379,297.033 162.833 C 297.452 150.728,297.883 147.421,299.392 144.752 C 300.566 142.674,300.447 141.972,298.723 140.831 C 298.051 140.386,296.688 139.099,295.695 137.971 C 293.027 134.939,291.135 134.356,288.384 135.718 M293.215 138.279 C 293.738 138.799,294.903 140.090,295.804 141.149 L 297.441 143.074 296.728 145.288 C 295.923 147.786,295.017 156.435,294.978 162.000 C 294.926 169.176,294.627 170.884,292.753 174.708 C 286.261 187.952,279.799 182.683,280.438 164.667 C 281.058 147.191,287.920 133.020,293.215 138.279 M235.412 142.704 C 226.852 146.941,223.467 163.518,228.037 178.825 C 231.706 191.113,239.795 188.221,244.797 172.833 L 245.664 170.167 245.555 158.667 C 245.436 146.006,245.463 146.176,243.278 144.121 C 240.899 141.882,238.094 141.377,235.412 142.704 M240.815 144.756 C 243.328 146.179,243.332 146.203,243.488 158.658 C 243.647 171.335,243.654 171.284,240.615 177.620 C 234.418 190.539,228.268 183.632,228.191 163.667 C 228.142 151.037,234.661 141.270,240.815 144.756 M120.545 145.010 C 114.442 146.838,112.126 155.116,115.485 163.091 C 118.230 169.605,130.359 171.721,132.008 165.972 C 132.495 164.275,132.400 157.742,131.847 154.852 C 130.430 147.446,125.819 143.430,120.545 145.010 M124.423 147.019 C 128.087 148.037,130.333 153.415,130.333 161.169 C 130.333 166.496,129.946 167.000,125.856 167.000 C 120.361 167.000,117.701 164.740,116.326 158.903 C 114.596 151.558,118.760 145.447,124.423 147.019 M87.961 169.210 C 89.706 170.432,89.807 171.403,90.693 195.282 C 91.103 206.329,90.991 208.411,89.894 210.067 C 87.782 213.257,79.757 214.333,77.194 211.770 C 76.176 210.752,76.132 210.005,76.820 205.414 C 77.406 201.499,78.216 192.171,78.505 186.000 C 78.621 183.525,78.950 180.675,79.236 179.667 C 79.522 178.658,80.017 176.679,80.338 175.267 C 81.354 170.789,85.506 167.490,87.961 169.210 M110.863 171.770 C 109.411 172.832,110.138 179.168,112.133 182.833 C 115.970 189.883,124.243 188.787,128.270 180.697 C 130.462 176.293,129.702 175.041,124.586 174.622 C 120.187 174.261,118.397 173.841,115.370 172.458 C 112.695 171.237,111.783 171.098,110.863 171.770 M115.288 174.675 C 117.381 175.624,120.108 176.266,123.167 176.527 C 127.266 176.878,127.682 177.354,126.285 180.097 C 121.849 188.806,112.333 186.030,112.333 176.026 C 112.333 173.725,112.762 173.529,115.288 174.675 M346.420 199.750 C 341.878 202.960,335.007 214.301,334.758 219.000 C 334.270 228.195,342.278 224.089,346.211 213.126 C 350.156 202.128,350.236 197.054,346.420 199.750 M346.225 205.703 C 345.498 211.837,340.525 221.333,338.040 221.333 C 334.574 221.333,338.803 210.616,344.514 204.926 C 346.046 203.400,346.474 203.594,346.225 205.703 M54.922 220.639 C 52.811 222.525,54.191 227.444,60.357 240.006 C 116.864 355.137,277.641 362.413,343.789 252.833 C 352.314 238.710,356.613 228.038,353.903 227.727 C 351.071 227.402,348.324 230.399,344.498 237.986 C 311.126 304.175,239.462 337.322,167.667 319.775 C 145.239 314.293,121.953 302.202,104.765 287.112 C 91.624 275.576,88.746 272.737,86.061 268.667 C 85.034 267.108,82.728 263.864,80.938 261.456 C 72.677 250.349,65.309 236.760,60.294 223.384 C 58.863 219.568,57.118 218.677,54.922 220.639 M59.622 227.386 C 64.558 239.707,72.095 253.221,79.444 262.926 C 82.719 267.251,83.866 269.667,82.645 269.667 C 78.019 269.667,53.419 225.714,56.384 222.749 C 57.153 221.980,57.865 223.000,59.622 227.386 M217.000 230.054 C 213.435 232.508,210.521 235.653,204.541 243.500 C 202.305 246.433,199.744 249.771,198.850 250.918 C 197.956 252.064,197.313 253.091,197.422 253.200 C 198.187 253.965,204.205 247.962,209.318 241.333 C 211.227 238.858,214.085 235.258,215.670 233.333 C 219.658 228.489,219.807 228.121,217.000 230.054 M230.812 232.161 C 229.562 232.555,225.871 234.646,226.398 234.660 C 226.526 234.664,227.651 234.168,228.898 233.559 C 230.146 232.950,231.542 232.285,232.000 232.081 C 233.111 231.589,232.492 231.630,230.812 232.161 M351.537 233.083 C 351.215 234.726,345.756 245.566,342.600 250.833 C 290.253 338.188,172.778 355.390,97.554 286.716 C 91.850 281.509,89.936 278.910,92.230 279.486 C 93.502 279.805,94.786 280.765,97.833 283.676 C 173.324 355.779,297.993 333.971,345.607 240.333 C 349.238 233.192,350.024 232.000,351.100 232.000 C 351.655 232.000,351.719 232.159,351.537 233.083 M184.417 242.650 C 182.652 244.670,179.453 246.089,174.956 246.845 C 169.959 247.686,169.536 248.169,173.058 249.014 C 178.579 250.338,186.333 246.251,186.333 242.017 C 186.333 240.660,186.085 240.742,184.417 242.650 M162.583 242.360 C 161.339 243.085,162.156 246.209,163.522 245.950 C 164.288 245.805,164.590 243.769,164.008 242.681 C 163.598 241.916,163.416 241.875,162.583 242.360 M107.423 244.907 C 103.079 247.297,100.783 250.260,101.805 252.157 C 103.191 254.730,104.766 254.848,108.603 252.667 C 110.215 251.750,111.691 251.000,111.882 251.000 C 113.741 251.000,113.562 248.334,111.558 246.179 C 109.907 244.403,108.901 244.094,107.423 244.907 M300.776 244.980 C 297.535 246.957,297.475 249.506,300.605 252.330 C 304.846 256.158,306.513 256.379,308.766 253.413 C 310.255 251.452,309.963 250.081,307.809 248.927 C 306.878 248.428,305.345 247.191,304.401 246.177 C 302.494 244.128,302.287 244.059,300.776 244.980 M110.750 246.250 C 112.959 248.566,112.772 249.202,109.374 250.939 C 105.536 252.900,104.242 253.235,103.182 252.541 C 101.400 251.373,102.095 249.711,105.426 247.177 C 108.258 245.023,109.391 244.826,110.750 246.250 M304.014 247.267 C 305.067 248.330,306.545 249.478,307.298 249.817 C 309.550 250.833,308.298 254.669,305.715 254.665 C 303.884 254.663,298.998 250.576,299.002 249.050 C 299.006 247.675,300.785 245.450,301.966 245.345 C 302.039 245.339,302.960 246.203,304.014 247.267 M116.390 260.188 C 112.890 263.856,112.594 266.000,115.589 266.000 C 117.000 266.000,117.998 266.521,118.007 267.262 C 118.065 271.782,121.423 271.893,124.963 267.492 C 127.958 263.769,127.967 262.000,124.989 262.000 C 123.563 262.000,123.206 261.667,122.717 259.877 C 121.740 256.298,120.021 256.382,116.390 260.188 M288.250 258.250 C 285.346 260.486,285.324 261.871,288.142 265.102 C 291.471 268.918,292.806 269.452,294.991 267.840 C 297.355 266.096,297.960 264.118,296.441 263.099 C 294.993 262.128,292.544 259.585,291.932 258.417 C 291.203 257.025,289.916 256.967,288.250 258.250 M121.481 258.741 C 121.766 259.148,122.002 259.861,122.005 260.324 C 122.015 262.072,122.715 262.820,124.508 263.000 C 126.850 263.235,126.849 263.940,124.499 266.943 C 121.312 271.016,119.529 271.087,118.841 267.167 C 118.515 265.308,118.152 265.000,116.293 265.000 C 113.838 265.000,114.011 264.000,117.047 260.637 C 119.612 257.796,120.541 257.399,121.481 258.741 M291.057 258.885 C 291.392 259.188,291.667 259.617,291.667 259.837 C 291.667 260.176,293.978 262.466,295.799 263.930 C 296.921 264.832,294.732 268.000,292.987 268.000 C 291.488 268.000,286.667 263.126,286.667 261.610 C 286.667 259.795,289.867 257.808,291.057 258.885 M274.079 269.685 C 270.350 271.580,269.826 273.263,271.944 276.540 C 274.935 281.167,276.451 282.002,278.269 280.021 C 278.763 279.483,279.866 278.744,280.720 278.380 C 282.724 277.524,283.009 276.696,281.867 275.049 C 281.395 274.367,280.774 273.121,280.487 272.280 C 279.460 269.266,276.924 268.239,274.079 269.685 M277.945 270.138 C 278.904 270.634,279.074 270.906,280.517 274.238 C 281.559 276.645,281.465 277.130,279.820 277.817 C 279.155 278.095,278.187 278.776,277.670 279.330 C 276.221 280.881,275.361 280.404,272.943 276.707 C 271.090 273.875,270.980 273.122,272.250 271.933 C 274.326 269.990,276.396 269.337,277.945 270.138 M137.536 273.529 C 135.245 276.171,134.713 276.641,133.793 276.829 C 131.357 277.326,131.167 277.459,131.167 278.661 C 131.167 280.735,134.093 281.999,136.267 280.863 C 138.209 279.848,141.000 275.901,141.000 274.168 C 141.000 272.002,139.155 271.661,137.536 273.529 M140.138 273.880 C 140.999 276.124,135.871 281.235,133.618 280.378 C 131.487 279.568,131.588 278.197,133.820 277.635 C 135.280 277.268,135.518 277.069,137.914 274.222 C 138.756 273.222,139.823 273.058,140.138 273.880 M258.045 279.054 C 255.414 280.356,255.312 281.721,257.486 286.493 C 259.349 290.580,262.333 291.261,262.333 287.599 C 262.333 287.094,262.580 286.064,262.881 285.311 C 263.500 283.766,263.003 279.717,262.082 278.797 C 261.407 278.121,259.711 278.230,258.045 279.054 M261.255 279.417 C 262.748 281.262,262.191 289.000,260.565 289.000 C 259.430 289.000,256.667 284.086,256.667 282.065 C 256.667 280.198,260.226 278.144,261.255 279.417 M150.885 279.804 C 148.406 280.718,147.000 282.656,147.000 285.161 C 147.000 292.233,156.792 293.858,159.004 287.153 C 160.444 282.792,155.333 278.166,150.885 279.804 M155.693 281.091 C 160.217 284.140,158.544 290.664,153.237 290.666 C 147.796 290.668,145.628 283.329,150.357 280.917 C 151.992 280.084,154.310 280.159,155.693 281.091 M152.119 282.997 C 149.395 284.096,150.082 288.000,153.000 288.000 C 155.759 288.000,156.730 284.406,154.309 283.154 C 153.246 282.604,153.116 282.595,152.119 282.997 M154.501 284.455 C 155.627 286.173,153.491 288.182,151.987 286.821 C 151.627 286.496,151.333 285.889,151.333 285.472 C 151.333 283.736,153.561 283.020,154.501 284.455 M169.021 287.111 C 168.832 287.609,168.891 288.656,169.185 290.027 C 169.437 291.204,169.649 293.149,169.655 294.350 C 169.676 298.232,172.006 298.627,173.816 295.055 C 174.126 294.444,175.194 293.058,176.190 291.975 C 178.789 289.147,178.481 288.000,175.121 288.000 C 173.680 288.000,173.055 287.822,172.196 287.167 C 170.782 286.088,169.419 286.064,169.021 287.111 M235.511 287.156 C 232.194 288.046,231.754 289.518,233.332 294.443 C 234.767 298.923,236.109 299.682,239.749 298.072 C 247.387 294.693,243.617 284.980,235.511 287.156 M172.167 288.175 C 173.091 288.745,173.986 288.997,175.083 288.998 C 177.055 289.000,177.241 289.876,175.623 291.545 C 175.049 292.137,174.027 293.419,173.351 294.394 C 171.361 297.264,170.349 296.963,170.337 293.500 C 170.333 292.400,170.169 290.920,169.972 290.211 C 169.224 287.519,169.973 286.824,172.167 288.175 M240.842 288.339 C 243.172 289.779,243.760 293.444,241.985 295.466 C 240.211 297.486,237.251 298.514,235.659 297.663 C 235.048 297.336,233.000 291.744,233.000 290.404 C 233.000 288.046,238.167 286.685,240.842 288.339 M237.190 290.857 C 236.052 291.996,236.783 294.333,238.278 294.333 C 239.452 294.333,240.000 293.781,240.000 292.600 C 240.000 290.871,238.257 289.790,237.190 290.857 M219.727 291.500 C 218.524 292.512,218.045 292.534,216.537 291.644 C 213.286 289.726,211.722 291.497,212.242 296.508 C 212.769 301.587,213.915 302.817,216.273 300.833 C 216.817 300.375,217.421 300.000,217.614 300.000 C 217.807 300.000,218.670 300.375,219.532 300.833 C 222.791 302.566,223.829 301.423,223.589 296.361 C 223.332 290.946,222.152 289.460,219.727 291.500 M195.174 291.796 C 193.942 293.028,191.333 298.474,191.333 299.815 C 191.333 301.509,192.175 301.856,194.507 301.121 C 196.306 300.554,196.364 300.557,198.174 301.307 C 202.002 302.893,202.640 301.692,200.883 296.210 C 199.238 291.080,197.350 289.620,195.174 291.796 M198.232 292.166 C 199.086 292.765,201.100 298.516,200.940 299.901 C 200.805 301.071,199.998 301.251,198.304 300.487 C 197.361 300.062,196.646 299.973,195.595 300.150 C 191.514 300.837,191.316 300.441,193.508 295.974 C 195.585 291.740,196.533 290.976,198.232 292.166 M216.667 292.667 C 218.532 293.906,218.781 293.906,219.886 292.667 C 221.639 290.699,222.614 291.856,222.898 296.242 C 223.199 300.884,222.209 301.726,218.927 299.620 L 217.295 298.573 216.183 299.651 C 214.105 301.664,213.025 300.210,212.899 295.230 C 212.805 291.484,213.834 290.784,216.667 292.667 M238.833 292.505 C 238.833 293.437,237.857 293.334,237.723 292.387 C 237.637 291.782,237.750 291.634,238.223 291.725 C 238.570 291.792,238.833 292.128,238.833 292.505 " stroke="none" fill="#9dc1dc" fill-rule="evenodd"></path><path id="path4" d="M338.167 10.906 C 333.403 11.568,329.154 13.200,315.333 19.674 C 309.375 22.465,301.200 26.285,297.167 28.164 C 293.133 30.043,286.458 33.152,282.333 35.073 C 278.208 36.994,274.312 38.743,273.674 38.959 C 272.796 39.256,263.573 39.299,235.674 39.135 L 198.833 38.918 196.911 39.651 C 190.375 42.147,191.429 43.540,201.858 46.192 C 215.796 49.737,225.489 52.725,229.311 54.656 C 233.271 56.657,233.220 57.884,229.095 59.943 C 221.354 63.805,213.952 67.019,211.711 67.491 C 209.655 67.923,204.233 70.476,202.167 71.984 C 200.428 73.254,195.462 74.143,192.644 73.689 C 189.604 73.199,187.515 72.089,179.551 66.732 L 172.269 61.833 170.385 61.862 C 168.189 61.895,161.920 63.667,160.977 64.521 C 159.635 65.735,160.020 66.718,164.407 73.275 C 170.984 83.105,170.841 85.343,163.671 84.777 C 155.845 84.159,151.727 85.031,152.534 87.136 C 152.786 87.792,153.404 87.995,163.167 90.620 C 179.987 95.143,182.788 95.272,195.000 92.089 C 213.433 87.284,233.026 80.850,256.148 72.008 C 265.711 68.351,265.195 68.499,266.162 69.133 C 266.948 69.648,266.960 69.739,267.063 75.855 C 267.158 81.540,267.220 82.094,267.814 82.527 C 269.622 83.848,270.808 83.053,276.274 76.856 C 285.030 66.929,293.209 57.783,293.826 57.228 C 294.553 56.575,297.675 55.023,307.333 50.512 C 334.457 37.846,355.006 23.082,354.999 16.267 C 354.994 12.180,347.093 9.664,338.167 10.906 M348.849 12.790 C 355.181 14.474,354.883 17.269,347.636 24.167 C 339.395 32.008,323.449 41.478,301.667 51.466 C 292.582 55.632,294.450 54.045,281.795 68.351 C 268.178 83.746,268.667 83.500,268.667 74.964 C 268.667 65.532,268.660 65.529,257.454 69.855 C 234.108 78.869,214.281 85.420,194.667 90.600 L 187.500 92.492 182.333 92.496 C 176.485 92.500,174.937 92.237,165.593 89.652 C 159.197 87.882,157.333 87.217,157.333 86.704 C 157.333 86.272,160.008 85.878,161.219 86.132 C 165.159 86.958,169.343 86.260,170.182 84.636 C 171.483 82.122,170.822 80.289,165.930 72.833 C 161.043 65.388,161.034 65.652,166.232 64.193 C 171.344 62.759,170.442 62.438,180.845 69.393 C 191.640 76.611,196.893 77.223,205.486 72.264 C 209.353 70.032,210.471 69.516,212.500 69.027 C 215.042 68.414,232.007 60.445,233.139 59.332 C 237.165 55.372,230.370 52.002,205.167 45.458 C 196.632 43.241,195.536 42.795,196.319 41.851 C 197.576 40.336,197.811 40.329,235.939 40.660 C 259.923 40.868,272.303 40.860,273.304 40.636 C 274.128 40.451,283.734 36.125,294.651 31.022 C 331.585 13.757,330.971 14.024,336.333 12.880 C 340.812 11.925,345.470 11.891,348.849 12.790 M83.044 66.181 C 81.894 67.148,80.490 69.267,80.795 69.573 C 80.908 69.686,81.000 69.615,81.000 69.416 C 81.000 69.217,81.765 68.217,82.700 67.194 C 84.530 65.191,84.654 64.826,83.044 66.181 M331.667 169.385 C 331.667 169.597,331.281 170.310,330.809 170.969 L 329.952 172.167 330.976 171.013 C 331.883 169.990,332.305 169.000,331.833 169.000 C 331.742 169.000,331.667 169.173,331.667 169.385 M210.673 172.083 C 210.331 172.862,209.823 174.700,209.544 176.167 C 209.266 177.633,208.804 179.490,208.519 180.292 C 208.233 181.094,208.008 181.994,208.019 182.292 C 208.042 182.961,209.065 179.760,210.482 174.583 C 211.626 170.406,211.671 169.812,210.673 172.083 M337.246 172.728 C 336.391 173.880,335.655 175.716,335.682 176.633 C 335.691 176.927,335.971 176.467,336.306 175.612 C 336.640 174.757,337.250 173.586,337.660 173.009 C 338.668 171.594,338.283 171.333,337.246 172.728 M330.789 174.688 C 331.236 175.501,331.702 176.652,331.826 177.246 C 332.176 178.924,332.613 178.839,332.298 177.154 C 331.967 175.383,331.641 174.715,330.687 173.851 C 330.023 173.251,330.029 173.303,330.789 174.688 M337.975 179.866 C 337.530 180.342,336.492 181.085,335.667 181.517 C 334.842 181.949,334.362 182.309,334.600 182.318 C 335.636 182.355,338.107 180.713,338.709 179.587 C 339.148 178.767,338.919 178.855,337.975 179.866 M105.426 247.177 C 102.095 249.711,101.400 251.373,103.182 252.541 C 104.242 253.235,105.536 252.900,109.374 250.939 C 112.430 249.377,112.451 249.354,111.981 248.111 C 110.758 244.873,108.818 244.597,105.426 247.177 M301.063 245.784 C 298.475 247.220,298.421 249.403,300.917 251.687 C 304.600 255.058,305.939 255.417,307.632 253.488 C 309.151 251.758,309.046 250.606,307.298 249.817 C 306.545 249.478,305.067 248.330,304.014 247.267 C 302.960 246.203,302.039 245.339,301.966 245.345 C 301.893 245.352,301.487 245.549,301.063 245.784 M117.047 260.637 C 114.011 264.000,113.838 265.000,116.293 265.000 C 118.152 265.000,118.515 265.308,118.841 267.167 C 119.529 271.087,121.312 271.016,124.499 266.943 C 126.849 263.940,126.850 263.235,124.508 263.000 C 122.715 262.820,122.015 262.072,122.005 260.324 C 121.987 257.216,120.025 257.340,117.047 260.637 M287.961 259.627 C 286.282 261.307,286.327 261.891,288.328 264.295 C 291.650 268.287,292.980 268.765,295.039 266.706 C 296.440 265.305,296.633 264.601,295.799 263.930 C 293.978 262.466,291.667 260.176,291.667 259.837 C 291.667 258.128,289.578 258.011,287.961 259.627 M274.500 270.386 C 270.942 272.225,270.687 273.260,272.943 276.707 C 275.361 280.404,276.221 280.881,277.670 279.330 C 278.187 278.776,279.155 278.095,279.820 277.817 C 281.692 277.035,281.621 276.250,279.238 271.388 C 278.413 269.705,276.571 269.315,274.500 270.386 M137.914 274.222 C 135.518 277.069,135.280 277.268,133.820 277.635 C 132.176 278.049,131.674 278.706,132.366 279.539 C 134.199 281.748,137.654 279.990,139.672 275.822 C 140.791 273.510,139.501 272.336,137.914 274.222 M259.000 279.374 C 256.478 280.380,256.145 281.863,257.680 285.251 C 259.885 290.113,261.014 290.200,262.021 285.584 C 262.947 281.341,261.505 278.376,259.000 279.374 M150.357 280.917 C 146.716 282.774,146.905 288.081,150.681 290.008 C 154.271 291.839,158.333 289.535,158.333 285.667 C 158.333 281.703,153.943 279.089,150.357 280.917 M154.309 283.154 C 156.730 284.406,155.759 288.000,153.000 288.000 C 150.082 288.000,149.395 284.096,152.119 282.997 C 153.116 282.595,153.246 282.604,154.309 283.154 M169.813 288.128 C 169.704 288.565,169.775 289.502,169.972 290.211 C 170.169 290.920,170.333 292.400,170.337 293.500 C 170.349 296.963,171.361 297.264,173.351 294.394 C 174.027 293.419,175.049 292.137,175.623 291.545 C 177.241 289.876,177.055 289.000,175.083 288.998 C 173.986 288.997,173.091 288.745,172.167 288.175 C 170.489 287.142,170.063 287.133,169.813 288.128 M235.098 288.036 C 232.803 288.699,232.612 289.779,234.014 294.159 C 235.321 298.237,236.383 298.842,239.547 297.311 C 246.453 293.967,242.572 285.875,235.098 288.036 M239.333 291.000 C 240.074 291.741,240.217 293.316,239.600 293.933 C 238.966 294.567,237.403 294.419,237.012 293.689 C 235.846 291.510,237.698 289.365,239.333 291.000 M195.824 292.130 C 195.463 292.385,194.420 294.114,193.508 295.974 C 191.316 300.441,191.514 300.837,195.595 300.150 C 196.646 299.973,197.361 300.062,198.304 300.487 C 201.137 301.764,201.574 300.559,199.996 295.820 C 198.695 291.915,197.557 290.909,195.824 292.130 M213.480 292.142 C 212.924 292.551,212.843 292.984,212.899 295.230 C 213.025 300.210,214.105 301.664,216.183 299.651 L 217.295 298.573 218.927 299.620 C 222.209 301.726,223.199 300.884,222.898 296.242 C 222.614 291.856,221.639 290.699,219.886 292.667 C 218.781 293.906,218.532 293.906,216.667 292.667 C 214.983 291.548,214.416 291.454,213.480 292.142 " stroke="none" fill="#acacac" fill-rule="evenodd"></path></g></svg>